<svg xmlns="http://www.w3.org/2000/svg" width="1600" height="1000" viewBox="0 0 1600 1000" role="img" aria-label="R Dwiejhaya Barbershop">
  <defs>
    <linearGradient id="bg" x1="0" x2="1" y1="0" y2="1">
      <stop offset="0" stop-color="#0d1117"/>
      <stop offset="0.55" stop-color="#71c7ec"/>
      <stop offset="1" stop-color="#fef3b4"/>
    </linearGradient>
    <radialGradient id="glow" cx="70%" cy="20%" r="65%">
      <stop offset="0" stop-color="#f7fbff" stop-opacity=".9"/>
      <stop offset=".45" stop-color="#fef3b4" stop-opacity=".25"/>
      <stop offset="1" stop-color="#0d1117" stop-opacity="0"/>
    </radialGradient>
  </defs>
  <rect width="1600" height="1000" fill="url(#bg)"/>
  <rect width="1600" height="1000" fill="url(#glow)"/>
  <g fill="none" stroke="#f7fbff" stroke-opacity=".24" stroke-width="2">
    <path d="M120 210 H1480 M120 430 H1480 M120 650 H1480 M120 870 H1480"/>
    <path d="M280 80 V920 M560 80 V920 M840 80 V920 M1120 80 V920 M1400 80 V920"/>
  </g>
  <circle cx="1260" cy="240" r="170" fill="#f7fbff" opacity=".16"/>
  <circle cx="1260" cy="240" r="92" fill="#0d1117" opacity=".45"/>
  <g opacity=".58"><path d="M1010 560c70-160 220-260 380-290" fill="none" stroke="#fef3b4" stroke-width="18"/><path d="M1000 650h360" stroke="#f7fbff" stroke-width="20"/><rect x="1110" y="300" width="190" height="260" rx="36" fill="#f7fbff" opacity=".3"/></g>
  <rect x="120" y="590" width="760" height="190" rx="28" fill="#0d1117" opacity=".62"/>
  <text x="160" y="675" font-family="Arial, Helvetica, sans-serif" font-size="74" font-weight="900" fill="#f7fbff">R Dwiejhaya Barbershop</text>
  <text x="164" y="735" font-family="Arial, Helvetica, sans-serif" font-size="32" font-weight="700" fill="#fef3b4">Premium haircut, hairstyle, and color</text>
  <text x="128" y="146" font-family="Arial, Helvetica, sans-serif" font-size="26" font-weight="800" fill="#f7fbff" opacity=".74">HERO</text>
</svg>